<?xml version="1.0" encoding="UTF-8"?>
<!-- Generated by Pixelmator Pro 3.6.13 -->
<svg width="1080" height="702" viewBox="0 0 1080 702" xmlns="http://www.w3.org/2000/svg">
    <path id="World" fill="#01b4e4" fill-rule="evenodd" stroke="none" d="M 947.178894 642.074341 C 922.997314 642.074341 909.60437 618.636719 909.60437 569.901428 C 909.60437 512.981567 925.60144 486.56781 949.039063 486.56781 C 965.036133 486.56781 975.45282 499.216675 978.801086 526.002441 L 978.801086 628.309387 C 971.732605 636.493958 959.45575 642.074341 947.178894 642.074341 Z M 979.173096 635.749878 L 979.917114 635.749878 L 979.917114 672.208374 L 1057.67041 655.467224 L 1057.67041 654.723145 C 1045.393555 641.330261 1038.697021 630.541504 1038.697021 588.874756 L 1038.697021 377.192413 L 960.199829 398.769867 L 960.199829 399.513916 C 973.592712 415.138977 978.801086 430.764038 978.801086 459.037933 L 978.801086 484.707672 C 969.872437 481.731476 958.71167 479.871368 945.690796 479.871368 C 881.330444 479.871368 847.848206 528.606628 847.848206 584.782471 C 847.848206 636.493958 875.378052 672.580383 917.78894 672.580383 C 947.550964 672.580383 968.012329 654.723145 979.173096 635.749878 Z"/>
    <path id="Shape" fill="#ffc843" fill-rule="evenodd" stroke="none" d="M 754.0979 667 L 831.851135 667 L 831.851135 666.255981 C 826.642761 651.374939 822.922546 637.609985 822.922546 608.592041 L 822.922546 377.192413 L 744.425232 398.769867 L 744.425232 399.513916 C 757.818115 415.138977 763.026489 430.764038 763.026489 458.665924 L 763.026489 608.592041 C 763.026489 638.354065 759.306213 651.374939 754.0979 666.255981 Z"/>
    <path id="path1" fill="#d843b4" fill-rule="evenodd" stroke="none" d="M 683.041077 667 L 683.041077 666.255981 C 677.088684 648.026733 674.112488 632.401672 674.112488 601.52356 L 674.112488 531.210815 C 679.320801 524.886353 685.645264 520.422119 691.225647 520.422119 C 700.526245 520.422119 720.615601 529.722717 729.91626 542.371582 L 731.776367 542.371582 L 738.472839 479.871368 C 706.478638 477.639191 688.249451 507.029205 672.62439 523.026245 L 672.62439 478.01123 L 595.615173 499.588684 L 595.615173 500.332733 C 609.008057 515.957764 614.216431 531.954895 614.216431 559.484741 L 614.216431 601.52356 C 614.216431 633.145691 611.240234 648.026733 605.287842 666.255981 L 605.287842 667 Z"/>
    <path id="path2" fill="#ff6b02" fill-rule="evenodd" stroke="none" d="M 484.379639 672.580383 C 539.067322 672.580383 584.454407 628.309387 584.454407 576.5979 C 584.454407 524.886353 539.067322 479.871368 484.379639 479.871368 C 429.691956 479.871368 384.304901 524.886353 384.304901 576.5979 C 384.304901 628.309387 429.691956 672.580383 484.379639 672.580383 Z M 484.379639 665.511902 C 457.965851 665.511902 446.061066 629.425476 446.061066 576.5979 C 446.061066 523.770325 457.593842 486.939819 484.379639 486.939819 C 510.793427 486.939819 522.698242 523.770325 522.698242 576.5979 C 522.698242 629.425476 510.793427 665.511902 484.379639 665.511902 Z"/>
    <path id="W" fill="#ff4238" fill-rule="evenodd" stroke="none" d="M 150.301071 668.116089 L 215.033447 489.171997 L 274.185455 668.116089 L 308.783783 668.116089 L 373.516144 465.734406 C 383.560822 434.856323 394.721588 410.674683 410.718658 395.421661 L 410.718658 394.677612 L 343.75415 394.677612 L 343.75415 395.421661 C 363.843506 409.930634 372.028046 437.08847 358.635162 478.01123 L 321.432648 595.199158 L 280.509857 469.826691 C 270.46521 438.204529 272.325317 412.534821 287.206329 395.421661 L 287.206329 394.677612 L 173.366638 394.677612 L 173.366638 395.421661 C 188.619659 411.418732 197.920288 436.344421 206.476868 463.130219 L 209.825104 473.546936 L 165.182083 598.175354 L 125.003365 469.826691 C 115.330711 438.204529 116.07476 412.534821 131.327789 395.421661 L 131.327789 394.677612 L 17.4881 394.677612 L 17.4881 395.421661 C 32.741131 411.418732 42.041759 435.972382 50.598339 463.130219 L 115.330711 668.116089 Z"/>
    <path id="Meme" fill="#08ce7c" fill-rule="evenodd" stroke="none" d="M 962.527161 147.56781 C 977.036133 147.56781 986.336731 162.448853 986.336731 197.419189 L 986.336731 211.556152 L 933.509155 212.300171 C 933.509155 178.445923 943.181824 147.56781 962.527161 147.56781 Z M 1044.000732 274.800415 L 1042.140503 273.684326 C 1035.444092 281.124817 1019.819031 291.541534 994.149292 291.541534 C 961.411072 291.541534 935.369324 274.428375 933.509155 219.740692 L 1044.372681 220.112732 C 1045.116699 182.166138 1016.842834 140.871338 964.759277 140.871338 C 913.047791 140.871338 872.86908 182.166138 872.86908 240.574097 C 872.86908 292.657593 907.095398 333.580383 963.271179 333.580383 C 1005.682068 333.580383 1033.956055 309.770752 1044.000732 274.800415 Z M 629.564636 327.255951 C 623.240234 309.026733 620.636047 293.401672 620.636047 262.52356 L 620.636047 188.11853 C 627.33252 176.213745 638.865295 168.773254 651.51416 168.773254 C 667.13916 168.773254 673.091614 179.562012 673.091614 193.698914 L 673.091614 262.895599 C 673.091614 293.029633 670.487427 309.026733 664.162964 327.255951 L 664.162964 328 L 741.91626 328 L 741.91626 327.255951 C 735.591797 309.026733 732.615601 293.773682 732.615601 262.15155 L 732.615601 188.11853 C 739.684082 176.213745 751.216858 168.773254 763.865723 168.773254 C 779.490784 168.773254 785.443176 179.562012 785.443176 193.698914 L 785.443176 262.895599 C 785.443176 293.029633 782.46698 309.026733 776.514587 327.255951 L 776.514587 328 L 853.895813 328 L 853.895813 327.255951 C 847.94342 309.026733 844.967224 293.773682 844.967224 262.15155 L 844.967224 191.094757 C 844.967224 160.216675 824.505798 140.871338 792.883667 140.871338 C 762.005615 140.871338 742.288269 160.216675 732.615601 176.585754 L 731.499512 176.213745 C 726.291199 154.264282 707.317871 140.871338 680.532104 140.871338 C 649.653992 140.871338 629.936646 160.216675 620.636047 176.585754 L 619.147949 176.213745 L 619.147949 139.01123 L 542.138733 160.588684 L 542.138733 161.332764 C 555.159607 176.957764 560.73999 192.954895 560.73999 220.484741 L 560.73999 262.52356 C 560.73999 294.145691 557.391785 309.026733 551.811401 327.255951 L 551.811401 328 L 629.564636 328 Z M 449.504486 147.56781 C 464.013458 147.56781 473.314087 162.448853 473.314087 197.419189 L 473.314087 211.556152 L 420.486511 212.300171 C 420.486511 178.445923 430.15918 147.56781 449.504486 147.56781 Z M 530.978027 274.800415 L 529.117859 273.684326 C 522.421387 281.124817 506.796356 291.541534 481.126617 291.541534 C 448.388397 291.541534 422.346649 274.428375 420.486511 219.740692 L 531.349976 220.112732 C 532.094055 182.166138 503.82016 140.871338 451.736633 140.871338 C 400.025146 140.871338 359.846436 182.166138 359.846436 240.574097 C 359.846436 292.657593 394.072723 333.580383 450.248535 333.580383 C 492.659393 333.580383 520.93335 309.770752 530.978027 274.800415 Z M 100.544899 328 L 100.544899 327.255951 C 78.595413 299.726074 69.666817 283.729004 69.294785 247.270538 L 68.178711 104.040894 L 163.789169 319.81543 L 174.205872 319.81543 L 266.096069 105.156982 L 266.096069 249.502686 C 266.096069 285.589142 262.003815 300.842163 251.215088 327.255951 L 251.215088 328 L 347.56958 328 L 347.56958 327.255951 C 337.152893 300.842163 332.688599 285.217102 332.688599 249.502686 L 332.688599 125.246338 C 332.688599 92.136108 340.129089 79.115173 359.102386 56.421631 L 359.102386 55.677612 L 276.140747 55.677612 L 197.643463 239.085999 L 118.030083 55.677612 L 32.092278 55.677612 L 32.092278 56.421631 C 49.205433 76.510986 56.645935 89.159851 58.506062 115.20166 L 58.506062 247.270538 C 58.506062 284.473053 51.437584 299.726074 33.208351 327.255951 L 33.208351 328 Z"/>
</svg>
